<?xml version="1.0" standalone="no"?>
<!DOCTYPE svg PUBLIC "-//W3C//DTD SVG 20010904//EN"
 "http://www.w3.org/TR/2001/REC-SVG-20010904/DTD/svg10.dtd">
<svg version="1.0" xmlns="http://www.w3.org/2000/svg"
 width="200.000000pt" height="200.000000pt" viewBox="0 0 200.000000 200.000000"
 preserveAspectRatio="xMidYMid meet">
<metadata>
Created by potrace 1.11, written by Peter Selinger 2001-2013
</metadata>
<g transform="translate(0.000000,200.000000) scale(0.100000,-0.100000)"
fill="#000000" stroke="none">
<path d="M870 1642 l-25 -3 2 -602 c1 -331 2 -619 2 -639 l1 -38 144 0 143 0
0 215 c0 119 2 217 4 219 2 2 60 6 129 9 137 5 244 30 312 73 135 86 198 198
199 355 0 267 -149 401 -456 408 -167 4 -430 6 -455 3z m512 -251 c70 -33 93
-77 93 -172 0 -64 -4 -82 -25 -112 -41 -60 -86 -78 -206 -85 l-104 -5 -1 39
c-1 45 -1 332 0 353 1 24 185 11 243 -18z"/>
<path d="M210 995 l0 -645 40 0 40 0 0 645 0 645 -40 0 -40 0 0 -645z"/>
<path d="M330 995 l0 -645 40 0 40 0 0 645 0 645 -40 0 -40 0 0 -645z"/>
<path d="M460 995 l0 -645 35 0 35 0 0 645 0 645 -35 0 -35 0 0 -645z"/>
<path d="M580 995 l0 -645 40 0 40 0 0 645 0 645 -40 0 -40 0 0 -645z"/>
<path d="M720 995 l0 -645 35 0 35 0 0 645 0 645 -35 0 -35 0 0 -645z"/>
</g>
</svg>
