<?xml version="1.0" standalone="no"?>
<!DOCTYPE svg PUBLIC "-//W3C//DTD SVG 20010904//EN"
 "http://www.w3.org/TR/2001/REC-SVG-20010904/DTD/svg10.dtd">
<svg version="1.0" xmlns="http://www.w3.org/2000/svg"
 width="500.000000pt" height="500.000000pt" viewBox="0 0 500.000000 500.000000"
 preserveAspectRatio="xMidYMid meet">
<metadata>
Created by potrace 1.11, written by Peter Selinger 2001-2013
</metadata>
<g transform="translate(0.000000,500.000000) scale(0.100000,-0.100000)"
fill="#000000" stroke="none">
<path d="M2998 4577 l-347 -272 -1 -1292 0 -1292 29 -23 c27 -22 1356 -1253
1453 -1346 26 -25 50 -44 52 -41 5 5 -13 49 -131 319 -68 156 -227 522 -330
760 -8 19 -22 51 -30 70 -8 19 -58 134 -110 255 -52 121 -124 287 -159 368
l-65 148 0 1309 c0 721 -3 1310 -7 1309 -4 0 -163 -122 -354 -272z"/>
<path d="M2035 3197 l-341 -275 1 -980 c0 -539 2 -982 5 -985 4 -3 330 -101
440 -132 8 -2 62 -18 120 -35 58 -18 134 -40 170 -50 36 -11 97 -28 135 -40
39 -12 90 -27 115 -34 25 -8 84 -25 132 -40 48 -15 95 -29 105 -31 10 -2 54
-15 98 -29 44 -13 134 -40 200 -60 66 -19 165 -48 220 -64 55 -16 109 -32 120
-35 11 -3 65 -19 120 -36 116 -35 282 -85 373 -111 34 -10 62 -15 62 -10 0 7
-358 273 -457 340 -12 8 -303 220 -647 470 l-626 455 -2 979 -3 979 -340 -276z"/>
<path d="M3627 3433 c-2 -5 -3 -237 -3 -518 1 -469 3 -514 20 -565 29 -85 41
-125 86 -270 42 -134 55 -176 145 -465 26 -82 58 -184 70 -225 13 -41 47 -149
75 -240 28 -91 70 -223 92 -295 71 -230 109 -348 138 -435 l28 -85 1 155 c5
668 0 2435 -6 2440 -26 22 -620 498 -630 503 -6 4 -13 4 -16 0z"/>
<path d="M1070 1819 c-189 -149 -346 -272 -348 -273 -2 -3 -4 -1135 -2 -1348
l0 -38 1693 1 c1004 0 1680 4 1662 10 -16 4 -45 11 -65 14 -19 3 -42 8 -50 10
-11 3 -457 96 -625 129 -11 3 -54 12 -95 21 -41 9 -90 18 -109 21 -18 3 -41 7
-50 9 -28 7 -471 99 -676 141 -11 2 -54 11 -95 19 -107 22 -98 20 -290 59 -96
20 -186 39 -200 42 -14 2 -106 21 -205 42 l-180 38 -3 687 c-1 378 -5 687 -10
687 -4 -1 -162 -122 -352 -271z"/>
</g>
</svg>
